<?xml version="1.0" encoding="UTF-8"?>
<svg width="32px" height="32px" viewBox="0 0 32 32" version="1.1" xmlns="http://www.w3.org/2000/svg">
    <g id="circle">
        <circle id="Oval" fill="#FF7F41" cx="16" cy="16" r="16"></circle>
        <g id="alert" transform="translate(6.000000, 6.000000)" fill="#FFFFFF">
            <path d="M8,18.0266667 C8,16.9066667 8.90666667,16 10.08,16 C10.4,16 10.72,16.0533333 10.9866667,16.2133333 C11.04,16.2666667 11.1466667,16.32 11.2,16.3733333 C11.2533333,16.4266667 11.36,16.48 11.4133333,16.5333333 C12.2133333,17.28 12.2666667,18.56 11.52,19.36 C11.0933333,19.7866667 10.56,20 10.0266667,20 C8.90666667,20 8,19.1466667 8,18.0266667 Z M11.2533333,12.64 C11.2533333,13.3333333 10.72,13.8666667 10.0266667,13.8666667 C9.33333333,13.8666667 8.8,13.3333333 8.8,12.64 L8.8,1.22666667 C8.8,0.533333333 9.33333333,0 10.0266667,0 C10.72,0 11.2533333,0.533333333 11.2533333,1.22666667 L11.2533333,12.64 Z"></path>
        </g>
    </g>
</svg>
