<?xml version="1.0" encoding="UTF-8"?>
<svg width="80px" height="80px" viewBox="0 0 80 80" version="1.1" xmlns="http://www.w3.org/2000/svg" xmlns:xlink="http://www.w3.org/1999/xlink">
    <!-- Generator: Sketch 54.1 (76490) - https://sketchapp.com -->
    <title>Icons thin/Promotions/BeInspired</title>
    <desc>Created with Sketch.</desc>
    <g id="Icons-thin/Promotions/BeInspired" stroke="none" stroke-width="1" fill="none" fill-rule="evenodd">
        <path d="M68.9471875,30.0658621 C69.5367661,31.514639 69.2247332,33.1734016 68.14875,34.3103448 L56.46875,45.8489655 L62.2517187,59.7886207 C62.8255463,61.2319311 62.4845026,62.8774228 61.3839805,63.9753457 C60.2834583,65.0732685 58.6340711,65.4135067 57.1873437,64.8410345 L44.4351562,59.5610345 C43.7075643,59.2468035 43.3730721,58.4036322 43.688047,57.6777587 C44.0030218,56.9518851 44.8481893,56.6181829 45.5757812,56.9324138 L58.2709375,62.2806897 C58.6690886,62.3959227 59.0986495,62.3016425 59.4115625,62.0303448 C59.6982773,61.7257637 59.7946107,61.2889189 59.6625,60.8924138 L53.503125,46.0993103 C53.2861919,45.5664719 53.412229,44.9557373 53.8225,44.5517241 L66.1298437,32.2506897 C66.3945913,31.949016 66.4657098,31.5239819 66.3135344,31.1528761 C66.161359,30.7817704 65.8120267,30.5283326 65.41125,30.4982759 L49.3284375,30.4982759 C48.7491471,30.5041014 48.224864,30.1569078 48.0053125,29.622069 L41.3554687,13.5886207 C41.1811303,13.2248697 40.8128984,12.9933265 40.40875,12.9933265 C40.0046016,12.9933265 39.6363697,13.2248697 39.4620312,13.5886207 L32.8121875,29.587931 C32.5941903,30.1189038 32.0756121,30.4653056 31.5004687,30.4641379 L15.4176562,30.4641379 C15.0206728,30.5061407 14.6745901,30.7521423 14.5051562,31.1127586 C14.3547374,31.49703 14.4245653,31.9324236 14.6876562,32.2506897 L27.0064062,44.5517241 C27.3868056,44.9688667 27.4892341,45.5686576 27.26875,46.087931 L21.109375,60.8810345 C20.9993109,61.2604069 21.0942921,61.6695842 21.3603125,61.962069 C21.6632561,62.2521007 22.1014235,62.3526411 22.5009375,62.2237931 L35.344375,56.9096552 C35.6936909,56.7624329 36.0874031,56.7601016 36.4384461,56.9031768 C36.789489,57.046252 37.0689396,57.3229454 37.215,57.672069 C37.5142522,58.4010809 37.1679068,59.2344118 36.439375,59.5382759 L23.6301562,64.8410345 C23.1929976,65.0230925 22.7237157,65.1159534 22.25,65.1141379 C20.9417213,65.1431454 19.705534,64.5176876 18.9560235,63.4475271 C18.2065129,62.3773667 18.0429375,61.0042258 18.5201562,59.7886207 L24.3145312,45.8944828 L12.6801562,34.3103448 C11.5590642,33.2027289 11.2171676,31.5304345 11.8138967,30.0732712 C12.4106258,28.6161079 13.828461,27.6610486 15.40625,27.6534483 L30.5423437,27.6534483 L36.8271875,12.4962069 C37.4441356,11.0702041 38.8519107,10.1467047 40.40875,10.1467047 C41.9655893,10.1467047 43.3733644,11.0702041 43.9903125,12.4962069 L50.2751562,27.6534483 L65.41125,27.6534483 C66.9600872,27.7024438 68.3396641,28.6436681 68.9471875,30.0658621 Z M34.9109375,67.0713793 L34.8653125,67.0713793 C35.335982,66.8681075 35.8795995,66.9307828 36.2913896,67.2357959 C36.7031796,67.540809 36.9205815,68.0418213 36.8617021,68.5501062 C36.8028226,69.0583912 36.476607,69.4967282 36.0059375,69.7 L29.4359375,72.4196552 C29.2634367,72.4954111 29.0769107,72.5341789 28.8884375,72.5334483 C28.2130181,72.5281612 27.6339955,72.0507959 27.5015308,71.3900366 C27.369066,70.7292772 27.7195117,70.0664573 28.3409375,69.8024138 L34.9109375,67.0713793 Z M51.90625,7.95586207 C52.2608239,7.79834846 52.6644414,7.79185682 53.0239205,7.93788584 C53.3833997,8.08391486 53.6676667,8.36984166 53.8110937,8.72965517 L57.8032812,18.367931 L67.3503125,18.367931 C68.1377497,18.367931 68.7760937,19.0047674 68.7760937,19.7903448 C68.7760937,20.5759223 68.1377497,21.2127586 67.3503125,21.2127586 L56.8109375,21.2127586 C56.2316471,21.2185841 55.707364,20.8713906 55.4878125,20.3365517 L51.130625,9.82206897 C50.9837093,9.47214778 50.9829981,9.07817463 51.1286493,8.72772775 C51.2743006,8.37728087 51.5542441,8.09940195 51.90625,7.95586207 Z M73.715,38.7824138 L73.6921875,38.8051724 C74.0454897,38.4131711 74.5871306,38.2482508 75.0996309,38.3766301 C75.6121311,38.5050095 76.011434,38.9056327 76.1372115,39.4176416 C76.2629891,39.9296506 76.0946122,40.4690692 75.6996875,40.8193103 L68.285625,48.1703448 L71.935625,57.0234483 C72.2340748,57.7493197 71.8870443,58.5792075 71.16,58.8782759 C70.9914358,58.9537753 70.8086786,58.992568 70.6239063,58.992069 C70.0418031,58.9960347 69.5167142,58.6437917 69.3007813,58.1044828 L65.2857813,48.3751724 C65.0691226,47.844273 65.1902374,47.2356541 65.59375,46.8275862 L73.715,38.7824138 Z M27.08625,8.72965517 L27.08625,8.69551724 C27.290003,8.22392666 27.7304648,7.89660321 28.2417176,7.83684647 C28.7529704,7.77708972 29.2573428,7.99397815 29.5648426,8.40581198 C29.8723424,8.81764582 29.936253,9.3618577 29.7325,9.83344828 L25.3639062,20.347931 C25.1459091,20.8789038 24.6273309,21.2253056 24.0521875,21.2241379 L13.5014062,21.2241379 C12.713969,21.2241379 12.075625,20.5873016 12.075625,19.8017241 C12.075625,19.0161467 12.713969,18.3793103 13.5014062,18.3793103 L23.0940625,18.3793103 L27.08625,8.72965517 Z M9.703125,58.8555172 C9.3498269,58.7162641 9.06683732,58.4421152 8.91693992,58.0938928 C8.76704252,57.7456704 8.76263223,57.3521688 8.9046875,57.0006897 L12.5546875,48.1475862 L5.140625,40.7965517 C4.69280296,40.4550974 4.48864331,39.8825003 4.61972619,39.3356111 C4.75080907,38.7887219 5.19252734,38.3702037 5.74673887,38.2677919 C6.30095041,38.16538 6.86361745,38.3982993 7.18234375,38.862069 L15.2807812,46.8275862 C15.676389,47.2309642 15.7930323,47.8307062 15.5773437,48.3524138 L11.5623437,58.0817241 C11.3464108,58.621033 10.8213219,58.9732761 10.2392187,58.9693103 C10.0545538,58.9687912 9.87200655,58.9300431 9.703125,58.8555172 Z M51.4271875,72.4196552 L44.8001562,69.7 C44.0725643,69.385769 43.7380721,68.5425977 44.053047,67.8167242 C44.3680218,67.0908506 45.2131893,66.7571484 45.9407812,67.0713793 L52.5221875,69.8024138 C53.1436133,70.0664573 53.494059,70.7292772 53.3615942,71.3900366 C53.2291295,72.0507959 52.6501069,72.5281612 51.9746875,72.5334483 C51.78611,72.5352224 51.5993662,72.4964093 51.4271875,72.4196552 Z" id="Icon" fill="#000066"></path>
    </g>
</svg>