<?xml version="1.0" encoding="UTF-8"?>
<svg width="80px" height="80px" viewBox="0 0 80 80" version="1.1" xmlns="http://www.w3.org/2000/svg" xmlns:xlink="http://www.w3.org/1999/xlink">
    <!-- Generator: Sketch 55.2 (78181) - https://sketchapp.com -->
    <title>Icons thin/Billing/ChangeYourTariff</title>
    <desc>Created with Sketch.</desc>
    <g id="Icons-thin/Billing/ChangeYourTariff" stroke="none" stroke-width="1" fill="none" fill-rule="evenodd">
        <path d="M3,22.1576491 C3.02898788,17.608393 6.70579108,13.9338313 11.2360244,13.9266454 L28.104036,13.9266454 C29.01522,13.9266454 29.7538806,14.668422 29.7538806,15.5834497 C29.7538806,16.4984774 29.01522,17.240254 28.104036,17.240254 L11.2360244,17.240254 C8.52810252,17.247351 6.32856465,19.4384495 6.29968927,22.1576491 L6.29968927,71.7159786 C6.28914627,73.0387959 6.80414323,74.3112623 7.73064922,75.2516276 C8.6571552,76.1919929 9.91872619,76.7226695 11.2360244,76.7261547 L39.3097807,76.7261547 L39.3097807,63.6307737 C39.2991124,63.1845135 39.4682136,62.7528109 39.7787834,62.433446 C40.0893531,62.114081 40.5151117,61.9340776 40.9596254,61.9342062 L53.9867986,61.9342062 L53.9867986,31.342972 C53.9867986,30.4279443 54.7254592,29.6861677 55.6366432,29.6861677 C56.5478273,29.6861677 57.2864879,30.4279443 57.2864879,31.342972 L57.2864879,63.5910104 C57.2864879,63.6175193 57.2864879,63.6837915 57.2864879,63.6837915 C57.271138,64.0571873 57.1264196,64.4134775 56.8773264,64.6911285 L56.8773264,64.7574007 L42.0815197,79.5626037 C41.7925446,79.8215624 41.425358,79.9755912 41.0388179,80 L11.2360244,80 C6.68525955,79.9926881 3,76.2859461 3,71.7159786 L3,22.1576491 Z M42.5962712,65.2478147 L42.5962712,74.3403566 L51.6638173,65.2478147 L42.5962712,65.2478147 Z M75.6855552,14.1122075 L69.0861767,20.7394246 C68.5832285,21.2766306 67.8801973,21.5792006 67.1459594,21.574454 C66.4313422,21.5786453 65.7455668,21.2917002 65.2453384,20.7791879 C64.7245998,20.2610357 64.4342773,19.5536753 64.4402142,18.8175317 L64.4402142,16.2859347 L45.9619543,16.2859347 C45.4152439,16.2859347 44.9720475,15.8408688 44.9720475,15.2918522 L44.9720475,11.7661727 C44.9781924,11.5558339 44.9024348,11.3513762 44.7608674,11.196232 C44.628517,11.054503 44.4389294,10.9812771 44.2461159,10.9974155 C44.0527139,10.9935939 43.8663695,11.0703653 43.7313643,11.2094864 L37.1319858,17.8367035 C36.6104326,18.3524085 36.3167439,19.0567025 36.3167439,19.7917326 C36.3167439,20.5267626 36.6104326,21.2310566 37.1319858,21.7467616 L43.7313643,28.3739787 C43.8708284,28.5206402 44.0639747,28.6036128 44.265914,28.6036128 C44.4678533,28.6036128 44.6609996,28.5206402 44.8004637,28.3739787 C44.9397195,28.2334431 45.0159702,28.0420122 45.0116438,27.8438014 L45.0116438,24.198832 C45.0187524,23.6527995 45.4578118,23.211888 46.0015506,23.2047494 L61.6288789,23.2047494 C62.1755894,23.2047494 62.6187857,23.6498153 62.6187857,24.198832 C62.6187857,24.7478486 62.1755894,25.1929145 61.6288789,25.1929145 L46.9782586,25.1929145 L46.9782586,27.8570558 C46.9860262,28.5792752 46.7000055,29.2734078 46.1863332,29.7789488 C45.6788613,30.2888646 44.9904005,30.5753578 44.2725134,30.5753578 C43.5546262,30.5753578 42.8661654,30.2888646 42.3586936,29.7789488 L35.7593151,23.1517317 C34.8906001,22.2453469 34.4158526,21.029634 34.4394394,19.7718509 C34.4211918,18.5307342 34.8961833,17.3334763 35.7593151,16.4449879 L42.3586936,9.81777083 C42.8501547,9.30328971 43.5232813,9.00338927 44.2329171,8.98274148 C44.9630895,8.96380719 45.6684374,9.2495355 46.1811542,9.77194993 C46.6938709,10.2943644 46.9681223,11.0067637 46.9386623,11.7396638 L46.9386623,14.2977696 L65.4169222,14.2977696 C65.6805704,14.2917948 65.9345228,14.3976537 66.1164563,14.5893671 C66.3135658,14.7657334 66.4323563,15.01386 66.4464253,15.2785977 L66.4464253,18.7512595 C66.4397862,18.9602781 66.5212584,19.1624114 66.6708041,19.3079457 C66.8042799,19.4412721 66.9841139,19.5173111 67.1723569,19.5200167 C67.365178,19.5207846 67.5503812,19.4444833 67.6871084,19.3079457 L74.286487,12.6807286 C74.832539,12.1785858 75.1434898,11.4692325 75.1434898,10.7256996 C75.1434898,9.98216667 74.832539,9.27281334 74.286487,8.77067053 L67.6871084,2.14345342 C67.5496344,1.9932021 67.3557467,1.90768658 67.1525588,1.90768658 C66.9493709,1.90768658 66.7554832,1.9932021 66.6180091,2.14345342 C66.4784131,2.27941051 66.3977957,2.46513639 66.3936302,2.66037635 L66.3936302,6.30534576 C66.3972174,6.57008076 66.2940763,6.82502797 66.1076495,7.01224121 C65.9212227,7.19945445 65.6673464,7.30303067 65.4037235,7.29942833 L49.7631963,7.29942833 C49.2164859,7.29942833 48.7732895,6.85436241 48.7732895,6.30534576 C48.7732895,5.75632912 49.2164859,5.3112632 49.7631963,5.3112632 L64.4138167,5.3112632 L64.4138167,2.66037635 C64.4068273,1.95883987 64.6664333,1.28101703 65.1397483,0.764992262 C66.213482,-0.254997421 67.8936542,-0.254997421 68.9673879,0.764992262 L75.5667664,7.39220937 C76.4861098,8.27955029 77.0056203,9.50483222 77.0054309,10.7853445 C77.0281133,12.0272776 76.5524658,13.226189 75.6855552,14.1122075 Z M30.4798122,32.9997763 C28.6327495,32.9927336 26.8587425,33.7237308 25.5489538,35.0315854 C24.2391651,36.33944 23.5011613,38.1167443 23.4976697,39.9716087 L23.4976697,43.5635603 L34.6506195,43.5635603 C35.1973299,43.5635603 35.6405262,44.0086263 35.6405262,44.5576429 C35.6405262,45.1066596 35.1973299,45.5517255 34.6506195,45.5517255 L23.4976697,45.5517255 L23.4976697,55.1611903 L38.3990665,55.1611903 C38.9457769,55.1611903 39.3889733,55.6062562 39.3889733,56.1552728 C39.3889733,56.7042895 38.9457769,57.1493554 38.3990665,57.1493554 L22.507763,57.1493554 C21.9610525,57.1493554 21.5178562,56.7042895 21.5178562,56.1552728 L21.5178562,39.9981175 C21.5263771,36.8190608 23.2068478,33.8810958 25.9370868,32.2719817 C28.6673258,30.6628676 32.0409895,30.6220902 34.8090046,32.1647469 C35.2652563,32.4356272 35.4329182,33.0162105 35.1917685,33.4901903 C34.9311586,33.9600379 34.342384,34.1315028 33.8718928,33.8745689 C32.8324981,33.3010223 31.6657882,33.0001364 30.4798122,32.9997763 Z" id="Icon" fill="#000066"></path>
    </g>
</svg>