<?xml version="1.0" encoding="UTF-8"?>
<svg width="80px" height="80px" viewBox="0 0 80 80" version="1.1" xmlns="http://www.w3.org/2000/svg" xmlns:xlink="http://www.w3.org/1999/xlink">
    <!-- Generator: Sketch 54.1 (76490) - https://sketchapp.com -->
    <title>Icons thin/Ecommerce/ClickAndCollect</title>
    <desc>Created with Sketch.</desc>
    <g id="Icons-thin/Ecommerce/ClickAndCollect" stroke="none" stroke-width="1" fill="none" fill-rule="evenodd">
        <path d="M4.6159375,21.3113333 C4.6159375,20.5289299 5.25428151,19.8946667 6.04171875,19.8946667 L25.215625,19.8946667 C26.0030622,19.8946667 26.6414063,20.5289299 26.6414063,21.3113333 C26.6414063,22.0937367 26.0030622,22.728 25.215625,22.728 L6.04171875,22.728 C5.25428151,22.728 4.6159375,22.0937367 4.6159375,21.3113333 Z M12.66875,31.194 C11.8813128,31.194 11.2429688,30.5597367 11.2429688,29.7773333 C11.2429688,28.9949299 11.8813128,28.3606667 12.66875,28.3606667 L21.9648438,28.3606667 C22.752281,28.3606667 23.390625,28.9949299 23.390625,29.7773333 C23.390625,30.5597367 22.752281,31.194 21.9648438,31.194 L12.66875,31.194 Z M75.2548437,36.6 C75.9678147,36.8932455 76.3166052,37.6968647 76.041875,38.4133333 L65.5139062,64.344 C64.1304042,67.7574674 61.4385826,70.4848696 58.0308463,71.9259715 C54.6231099,73.3670733 50.7787259,73.4037752 47.34375,72.028 L29.9492187,65.0806667 L30.55375,66.69 C31.2961765,68.6251659 30.4434473,70.8045802 28.5804687,71.7333333 L25.671875,73.0366667 C25.2154292,73.2502225 24.7163701,73.3586938 24.211875,73.354 C23.7810309,73.355524 23.3542998,73.2707234 22.9571875,73.1046667 C21.986446,72.7062237 21.2289734,71.9206915 20.8698437,70.94 C20.7771301,70.725669 20.7771501,70.4828962 20.8698989,70.2685802 C20.9626477,70.0542642 21.139972,69.887245 21.3603125,69.8066667 C21.5760225,69.7145457 21.8203572,69.7145655 22.0360521,69.8067214 C22.251747,69.8988773 22.4198408,70.075068 22.5009375,70.294 C22.6985482,70.8333523 23.1111619,71.2679268 23.6415625,71.4953333 C24.0705196,71.6821027 24.5585429,71.6821027 24.9875,71.4953333 L27.8732812,70.1693333 C28.9319937,69.6117668 29.3988638,68.3519511 28.956875,67.2453333 L25.9342187,59.1986667 C25.7742068,58.7825247 25.9695548,58.3146957 26.3790625,58.1333333 L27.7135937,57.5326667 C28.1869309,57.2459359 28.3842418,56.6625687 28.18125,56.15 C28.1298624,56.018786 28.0522608,55.8992724 27.953125,55.7986667 L17.2654687,44.012 C17.0559426,43.7928685 16.7259918,43.7374587 16.455625,43.876 C16.1130101,44.0559769 15.8981214,44.4089303 15.8967187,44.794 L15.8967187,61.4086667 C15.8896993,61.5664647 15.9129238,61.7241508 15.9651562,61.8733333 C16.0520386,62.1207447 16.2377153,62.3216336 16.4784375,62.4286667 C16.6481375,62.5083513 16.8448312,62.5083513 17.0145312,62.4286667 L18.3490625,61.828 C18.5680625,61.7373333 18.8144375,61.7373333 19.0334375,61.828 C19.2533403,61.9209486 19.4232832,62.1021604 19.5010937,62.3266667 L20.8242187,65.8513333 C20.9386516,66.2750502 20.7097446,66.7156905 20.2958434,66.8684424 C19.8819423,67.0211943 19.4190382,66.8358699 19.2273437,66.4406667 L18.2235937,63.7773333 L17.733125,63.9926667 C17.1224909,64.2589759 16.4275091,64.2589759 15.816875,63.9926667 C15.13438,63.7048042 14.6047325,63.1456513 14.356875,62.4513333 C14.231976,62.1103165 14.1739006,61.7487038 14.1857812,61.386 L14.1857812,44.76 C14.2037303,43.7263387 14.8027866,42.7897318 15.7370312,42.3346667 C16.6787023,41.906697 17.7896638,42.1156581 18.50875,42.856 L22.0903125,46.8 L32.5042187,20.9826667 C32.6452432,20.6347379 32.9203978,20.3572618 33.2684375,20.212 C33.6329172,20.0583258 34.0445828,20.0583258 34.4090625,20.212 L43.5340625,23.8726667 L47.4578125,14.2166667 C50.0280077,7.89484733 57.2693821,4.84023551 63.6318749,7.39400017 C69.9943678,9.94776483 73.0686325,17.1428473 70.4984375,23.4646667 L66.5746875,33.132 L75.2548437,36.6 Z M62.8790625,63.29 L72.8253125,38.674 L65.4796875,35.7273333 L62.4228125,43.2526667 C62.2084132,43.7859439 61.6890404,44.1359622 61.1110937,44.1366667 C60.9275052,44.1367278 60.7455783,44.1021134 60.575,44.0346667 C60.2237658,43.8937858 59.9433853,43.619829 59.7957304,43.2732508 C59.6480754,42.9266725 59.6452828,42.5359604 59.7879687,42.1873333 L62.8334375,34.662 L50.8454687,29.868 C50.1314448,29.5663417 49.7912623,28.7527513 50.0799551,28.0371753 C50.3686479,27.3215993 51.1802253,26.9667543 51.90625,27.2386667 L63.9284375,32.0666667 L67.875,22.3766667 C69.8404434,17.4944695 67.4504834,11.9535455 62.536875,10.0006667 C57.6232666,8.04778779 52.0466934,10.4224695 50.08125,15.3046667 L42.096875,35.0473333 C41.9550877,35.3963222 41.6793684,35.6749103 41.3305603,35.8216213 C40.9817522,35.9683324 40.5885263,35.9711072 40.2376562,35.8293333 C39.8872357,35.6908185 39.6070017,35.4189863 39.4592179,35.0742338 C39.3114341,34.7294813 39.3083407,34.3403624 39.450625,33.9933333 L42.4732812,26.536 L34.6371875,23.408 L24.5540625,48.3413333 C24.4479023,48.6008107 24.264932,48.8221333 24.029375,48.976 L29.2078125,54.6426667 C29.4461249,54.910028 29.6353033,55.2169162 29.7667187,55.5493333 C30.2797221,56.8965954 29.7026825,58.4125737 28.4207812,59.0853333 L27.81625,59.3573333 L29.1279687,62.8706667 C29.4973196,62.3312317 30.1917471,62.115317 30.8046875,62.3493333 L48.4159375,69.4666667 C54.1264254,71.7288516 60.6014149,68.9636226 62.8790625,63.29 Z" id="Icon" fill="#000066"></path>
    </g>
</svg>