<?xml version="1.0" encoding="UTF-8"?>
<svg width="80px" height="80px" viewBox="0 0 80 80" version="1.1" xmlns="http://www.w3.org/2000/svg" xmlns:xlink="http://www.w3.org/1999/xlink">
    <!-- Generator: Sketch 54.1 (76490) - https://sketchapp.com -->
    <title>Icons thin/Ecommerce/Delivery</title>
    <desc>Created with Sketch.</desc>
    <g id="Icons-thin/Ecommerce/Delivery" stroke="none" stroke-width="1" fill="none" fill-rule="evenodd">
        <path d="M4.85714286,7.29032258 C4.85714286,6.49975368 5.49673607,5.85887097 6.28571429,5.85887097 L13.7942857,5.85887097 C15.928123,5.86386365 17.8511064,7.14994143 18.6742857,9.12258065 L28.56,33.0106452 L60.32,19.8870968 C61.0299272,19.614351 61.8286651,19.946571 62.1371429,20.6429032 L75.8514286,53.7037097 C76.1517833,54.4310381 75.8097202,55.2648993 75.0857143,55.5703226 L73.36,56.2917742 C73.1871616,56.3680115 73.0002706,56.4070256 72.8114286,56.4062903 C72.1346874,56.4009697 71.5545317,55.9205712 71.4218077,55.2556135 C71.2890838,54.5906558 71.6402153,53.9236244 72.2628571,53.6579032 L72.6628571,53.486129 L60.0914286,23.0591935 L29.6571429,35.6559677 L38.5942857,57.3224194 C40.5798554,62.1191178 46.0601927,64.406769 50.8571429,62.4412903 L64.2171429,56.9559677 C64.9493146,56.6555516 65.7859025,57.0067554 66.0857142,57.7404033 C66.3855259,58.4740512 66.0350289,59.3123257 65.3028571,59.6127419 L51.9885714,65.0866129 C50.5169889,65.6944668 48.9402834,66.005774 47.3485714,66.0027419 C42.3790707,66.0124454 37.896007,63.0131869 36,58.4103226 L16.08,10.2104839 C15.6928547,9.29320839 14.7880539,8.70390215 13.7942857,8.72177419 L6.28571429,8.72177419 C5.49673607,8.72177419 4.85714286,8.08089148 4.85714286,7.29032258 Z M23.6114286,75.5533871 C19.1931506,75.5533871 15.6114286,71.9644439 15.6114286,67.5372581 C15.6114286,63.1100722 19.1931506,59.521129 23.6114286,59.521129 C28.0297066,59.521129 31.6114286,63.1100722 31.6114286,67.5372581 C31.6114286,71.9644439 28.0297066,75.5533871 23.6114286,75.5533871 Z M23.6114286,62.361129 C20.7674026,62.3674269 18.463428,64.6760466 18.4571429,67.5258065 C18.4571429,70.378179 20.7647952,72.6904839 23.6114286,72.6904839 C26.458062,72.6904839 28.7657143,70.378179 28.7657143,67.5258065 C28.7657143,64.6734339 26.458062,62.361129 23.6114286,62.361129 Z" id="Icon" fill="#000066"></path>
    </g>
</svg>