<?xml version="1.0" encoding="UTF-8"?>
<svg width="80px" height="80px" viewBox="0 0 80 80" version="1.1" xmlns="http://www.w3.org/2000/svg" xmlns:xlink="http://www.w3.org/1999/xlink">
    <!-- Generator: Sketch 54.1 (76490) - https://sketchapp.com -->
    <title>Icons thin/Documents/Paper</title>
    <desc>Created with Sketch.</desc>
    <g id="Icons-thin/Documents/Paper" stroke="none" stroke-width="1" fill="none" fill-rule="evenodd">
        <path d="M23.2226415,38.994375 C23.2226415,38.7674906 23.3120954,38.5498988 23.4713244,38.3894672 C23.6305534,38.2290357 23.8465143,38.1389062 24.0716981,38.1389062 L57.0150943,38.1389062 C57.4840154,38.1389062 57.8641509,38.5219127 57.8641509,38.994375 C57.8641509,39.4668373 57.4840154,39.8498437 57.0150943,39.8498437 L24.0716981,39.8498437 C23.8455851,39.8529438 23.627832,39.7638101 23.4679311,39.6027017 C23.3080303,39.4415933 23.2195647,39.2221956 23.2226415,38.994375 Z M36.6943396,55.6360938 C37.1632606,55.6360938 37.5433962,56.0191002 37.5433962,56.4915625 C37.5433962,56.9640248 37.1632606,57.3470313 36.6943396,57.3470313 L24.0716981,57.3470313 C23.6027771,57.3470313 23.2226415,56.9640248 23.2226415,56.4915625 C23.2226415,56.0191002 23.6027771,55.6360938 24.0716981,55.6360938 L36.6943396,55.6360938 Z M57.0150943,46.8875 C57.4840154,46.8875 57.8641509,47.2705064 57.8641509,47.7429688 C57.8641509,48.2154311 57.4840154,48.5984375 57.0150943,48.5984375 L24.0716981,48.5984375 C23.6027771,48.5984375 23.2226415,48.2154311 23.2226415,47.7429688 C23.2226415,47.2705064 23.6027771,46.8875 24.0716981,46.8875 L57.0150943,46.8875 Z M69.0830189,67.5328125 C69.0860233,69.8198081 68.1872079,72.0143365 66.5843022,73.6336257 C64.9813965,75.2529148 62.8057025,76.1643206 60.5358491,76.1673438 L19.5886792,76.1673438 C14.8707934,76.1610602 11.0477459,72.3091408 11.0415094,67.555625 L11.0415094,13.7067187 C11.0725921,8.97103027 14.8883882,5.14678572 19.5886792,5.140625 L48.7169811,5.140625 C49.0873141,5.12463987 49.4490875,5.25569803 49.7245283,5.505625 L68.6754717,24.6795312 C68.9365716,24.9427595 69.0831742,25.2997247 69.0830189,25.671875 L69.0830189,67.5328125 Z M50.1320755,9.96546875 L50.1320755,24.2803125 L64.2603774,24.2803125 L50.1320755,9.96546875 Z M66.2528302,67.5328125 L66.2528302,27.0976562 L48.7735849,27.0976562 C47.9920499,27.0976562 47.3584906,26.4593122 47.3584906,25.671875 L47.3584906,7.93515625 L19.645283,7.93515625 C16.4860512,7.94144696 13.9282957,10.5236219 13.9283019,13.7067188 L13.9283019,67.4757813 C13.9345306,70.6544246 16.4904651,73.2296618 19.645283,73.2359375 L60.5924528,73.2359375 C63.7032756,73.1989869 66.2161566,70.6671284 66.2528302,67.5328125 Z" id="Icon" fill="#000066"></path>
    </g>
</svg>