<?xml version="1.0" encoding="UTF-8"?>
<svg width="80px" height="80px" viewBox="0 0 80 80" version="1.1" xmlns="http://www.w3.org/2000/svg" xmlns:xlink="http://www.w3.org/1999/xlink">
    <!-- Generator: Sketch 55.2 (78181) - https://sketchapp.com -->
    <title>Icons thin/Users/Friends</title>
    <desc>Created with Sketch.</desc>
    <g id="Icons-thin/Users/Friends" stroke="none" stroke-width="1" fill="none" fill-rule="evenodd">
        <path d="M1.57496398,49.8802183 C0.705226643,49.8802183 3.05533376e-13,49.1751569 3.05533376e-13,48.3054196 C-0.0257023903,41.8286182 2.98705967,35.7144834 8.13872518,31.7889303 C8.83451504,31.26013 9.82724152,31.3955018 10.3560418,32.0912916 C10.8848421,32.7870815 10.7494703,33.779808 10.0536805,34.3086083 C6.13589265,37.3098412 3.65473298,41.8152251 3.21275468,46.7306208 L17.6379112,46.7306208 C18.5076486,46.7306208 19.21271,47.4356823 19.21271,48.3054196 C19.21271,49.1751569 18.5076486,49.8802183 17.6379112,49.8802183 L1.57496398,49.8802183 Z M20.926091,73.7415692 C20.4995488,73.7417875 20.091162,73.568972 19.7943376,73.2626492 C19.4975133,72.9563265 19.3376429,72.5427006 19.3512923,72.1163767 C19.3352577,65.6453622 22.3463889,59.5391983 27.4898522,55.6124858 C28.1856421,55.0836855 29.1783686,55.2190573 29.7071689,55.9148472 C30.2359692,56.610637 30.1005974,57.6033635 29.4048075,58.1321638 C25.4790139,61.1303622 22.9997413,65.6451999 22.5764801,70.5667747 L57.7385867,70.5667747 C57.304286,65.6659217 54.825466,61.1747755 50.9102593,58.1951558 C50.2144694,57.6663555 50.0790976,56.673629 50.6078979,55.9778391 C51.1366982,55.2820492 52.1294247,55.1466774 52.8252146,55.6754777 C57.9729108,59.5931127 60.9856676,65.6979094 60.963893,72.1667703 C60.963893,73.0365076 60.2587131,73.7415692 59.3889758,73.7415692 L20.926091,73.7415692 Z M46.9165696,18.3338497 C46.9165696,11.5318948 52.4232559,6.01392164 59.2251967,6 C64.216043,5.98983009 68.7211301,8.9883968 70.6381132,13.5964145 C72.5550964,18.2044321 71.5060952,23.5135571 67.9806369,27.0462324 C64.4551785,30.5789077 59.1482098,31.6387637 54.5362816,29.7312079 C49.9243533,27.8236521 46.9165696,23.3247065 46.9165696,18.3338497 Z M68.4220214,18.3338497 C68.4150702,13.2595044 64.2995468,9.14962342 59.2251967,9.14962342 C54.1545344,9.15657907 50.0489371,13.2715722 50.0535687,18.3422372 C50.0582081,23.4129021 54.1713222,27.5203818 59.2419888,27.5180674 C64.3126553,27.5157511 68.4220214,23.4045168 68.4220214,18.3338497 Z M80,48.3054196 C80.0072216,49.160734 79.330445,49.8654767 78.4755366,49.8928167 L62.5259749,49.8928167 C61.6562375,49.8928167 60.9511761,49.1877553 60.9511761,48.318018 C60.9511761,47.4482806 61.6562375,46.7432192 62.5259749,46.7432192 L76.774754,46.7432192 C76.3461287,41.8272254 73.8618233,37.3207047 69.9338282,34.3338051 C69.2770385,33.7898313 69.1674233,32.8241101 69.6855869,32.1467722 C70.2037504,31.4694342 71.1645094,31.3225492 71.8613819,31.8141271 C77.0013136,35.7381569 80.0120361,41.8388314 80,48.3054196 Z M20.7875088,6.00002592 C27.5992916,6.00002592 33.1213326,11.5220669 33.1213326,18.3338497 C33.1213326,25.1456325 27.5992916,30.6676736 20.7875088,30.6676736 C13.9757259,30.6676736 8.45368493,25.1456325 8.45368493,18.3338497 C8.45368493,11.5220669 13.9757259,6.00002592 20.7875088,6.00002592 Z M20.7875088,27.5180761 C25.8598169,27.5180761 29.9717351,23.4061579 29.9717351,18.3338497 C29.9717351,13.2615416 25.8598169,9.14962342 20.7875088,9.14962342 C15.7152006,9.14962342 11.6032824,13.2615416 11.6032824,18.3338497 C11.6032824,23.4061579 15.7152006,27.5180761 20.7875088,27.5180761 Z M27.8300088,42.182602 C27.8300088,35.3757362 33.3443719,29.8557311 40.1512342,29.8487717 C45.1409436,29.8436815 49.6421684,32.8454876 51.5551801,37.4539159 C53.4681919,42.0623443 52.4160742,47.3694068 48.8896184,50.8994685 C45.3631626,54.4295301 40.057178,55.4870708 35.446797,53.5787698 C30.836416,51.6704687 27.8300088,47.172314 27.8300088,42.182602 Z M40.1512342,32.998367 C35.086724,33.0122464 30.986525,37.1180776 30.9796063,42.182602 C30.9796063,45.8984206 33.2186403,49.248117 36.6520974,50.6689194 C40.0855545,52.0897218 44.0368405,51.3016465 46.662517,48.6723633 C49.2881935,46.0430801 50.0708442,42.090716 48.6453301,38.6592125 C47.219816,35.2277089 43.8670492,32.9932786 40.1512342,32.998367 Z" id="Icon" fill="#000066"></path>
    </g>
</svg>