<?xml version="1.0" encoding="UTF-8"?>
<svg width="80px" height="80px" viewBox="0 0 80 80" version="1.1" xmlns="http://www.w3.org/2000/svg" xmlns:xlink="http://www.w3.org/1999/xlink">
    <!-- Generator: Sketch 54.1 (76490) - https://sketchapp.com -->
    <title>Icons thick/Sim/NanoSIM</title>
    <desc>Created with Sketch.</desc>
    <g id="Icons-thick/Sim/NanoSIM" stroke="none" stroke-width="1" fill="none" fill-rule="evenodd">
        <path d="M66.46,35.07 C66.46,35.06 66.46,35.05 66.46,35.03 L66.46,27.68 C66.46,23.99 63.47,21 59.78,21 L20.68,21 C17.72,21.01 15.12,22.96 14.27,25.8 C14.26,25.84 14.25,25.87 14.24,25.91 C13.92,27.12 14.64,28.37 15.85,28.69 C17.06,29.01 18.31,28.29 18.63,27.08 C18.9,26.17 19.74,25.55 20.68,25.55 L32.18,25.55 L29.64,31.65 C29.53,31.92 29.47,32.22 29.47,32.52 L29.47,32.81 L16.32,32.81 C15.07,32.81 14.05,33.83 14.05,35.08 C14.05,35.24 14.07,35.4 14.1,35.55 C14.04,35.75 14,35.95 14,36.17 L14,52.36 C14,56.04 16.98,59.03 20.67,59.04 L35.44,59.04 C35.47,59.04 35.49,59.05 35.52,59.05 L35.52,59.08 C35.66,59.08 35.8,59.06 35.94,59.04 L44.78,59.04 C44.82,59.04 44.86,59.05 44.89,59.05 C44.91,59.05 44.94,59.04 44.96,59.04 L59.77,59.04 C63.46,59.04 66.45,56.05 66.45,52.36 L66.45,35.12 C66.45,35.1 66.46,35.08 66.46,35.07 Z M61.91,42.85 L50.93,42.85 L50.93,37.34 L61.91,37.34 L61.91,42.85 Z M43.33,25.54 L44.21,27.66 C44.56,28.51 45.39,29.06 46.31,29.06 C46.61,29.06 46.9,29 47.18,28.89 C48.34,28.41 48.89,27.08 48.41,25.92 L48.25,25.54 L59.78,25.54 C60.96,25.54 61.92,26.5 61.92,27.68 L61.92,32.8 L48.67,32.8 C47.42,32.8 46.4,33.82 46.4,35.07 L46.4,45.08 C46.4,45.09 46.4,45.1 46.4,45.12 C46.4,45.14 46.4,45.14 46.4,45.16 L46.4,47.22 L43.39,54.49 L37.03,54.49 L34.03,47.25 L34.03,32.98 L37.11,25.55 L43.33,25.55 L43.33,25.54 Z M29.46,42.85 L18.55,42.85 L18.55,37.34 L29.46,37.34 L29.46,42.85 Z M18.55,52.35 L18.55,47.39 L29.46,47.39 L29.46,47.69 C29.46,47.99 29.52,48.28 29.63,48.56 L32.1,54.49 L20.69,54.49 C19.51,54.49 18.55,53.53 18.55,52.35 Z M59.78,54.49 L48.29,54.49 L50.77,48.54 C50.88,48.26 50.94,47.97 50.94,47.67 L50.94,47.39 L61.92,47.39 L61.92,52.35 C61.91,53.53 60.96,54.49 59.78,54.49 Z" id="Icons-thick/Devices/NanoSIM" fill="#000066"></path>
    </g>
</svg>