<?xml version="1.0" encoding="UTF-8"?>
<svg width="80px" height="80px" viewBox="0 0 80 80" version="1.1" xmlns="http://www.w3.org/2000/svg" xmlns:xlink="http://www.w3.org/1999/xlink">
    <!-- Generator: Sketch 54.1 (76490) - https://sketchapp.com -->
    <title>Icons thin/Promotions/Special</title>
    <desc>Created with Sketch.</desc>
    <g id="Icons-thin/Promotions/Special" stroke="none" stroke-width="1" fill="none" fill-rule="evenodd">
        <path d="M32.33,49.64 L32.33,49.62 C32.6061424,48.9848725 33.3448725,48.6938576 33.98,48.97 C34.6151275,49.2461424 34.9061424,49.9848725 34.63,50.62 L28.36,65.44 C28.1615088,65.8991471 27.710208,66.1973981 27.21,66.2 C27.0414272,66.201751 26.8744062,66.1676651 26.72,66.1 C26.4131866,65.9722079 26.1705177,65.7265962 26.0464331,65.4182647 C25.9223485,65.1099333 25.9272363,64.7646951 26.06,64.46 L32.33,49.64 Z M40,48.88 L40.02,48.88 C40.3506084,48.8799892 40.6675323,49.0120036 40.900367,49.246716 C41.1332017,49.4814284 41.2626662,49.7994023 41.26,50.13 L41.26,70 C41.2600107,70.3332605 41.1269428,70.6527278 40.890355,70.8874379 C40.6537673,71.1221479 40.3332499,71.2526661 40,71.25 C39.3096441,71.25 38.75,70.6903559 38.75,70 L38.75,50.13 C38.75,49.4396441 39.3096441,48.88 40,48.88 Z M46.09,49 C46.7196647,48.726925 47.4517358,49.0126112 47.73,49.64 L54,64.46 C54.1363048,64.7672326 54.1431384,65.1164123 54.0189589,65.4287427 C53.8947793,65.7410731 53.6500511,65.9902342 53.34,66.12 C53.1887664,66.1865734 53.0252368,66.2206421 52.86,66.22 C52.359001,66.2200174 51.9063916,65.9209017 51.71,65.46 L45.43,50.64 C45.3000329,50.3350022 45.2965543,49.990866 45.4203295,49.6833033 C45.5441047,49.3757407 45.7849939,49.1299476 46.09,49 Z M60.52,22.72 C60.9673113,23.8410136 60.7256268,25.1196028 59.9,26 L51.76,34.11 L55.76,43.89 C56.2092073,45.0066543 55.9475433,46.2836759 55.0953656,47.1336742 C54.2431878,47.9836725 52.9655003,48.2420653 51.85,47.79 L40,42.91 L28.17,47.79 C27.8343471,47.9304496 27.4738482,48.0018692 27.11,48 C26.1120069,48.0170723 25.1708811,47.53667 24.5992938,46.7183977 C24.0277065,45.9001254 23.9005239,44.8511598 24.26,43.92 L28.32,34.14 L20.16,26 C19.2900201,25.145283 19.0240574,23.848959 19.4872024,22.720729 C19.9503474,21.592499 21.0504112,20.8569368 22.27,20.86 L32.86,20.86 L37.27,10.22 C37.7412648,9.11374 38.8275435,8.39575508 40.03,8.39575508 C41.2324565,8.39575508 42.3187352,9.11374 42.79,10.22 L47.2,20.86 L57.78,20.86 C58.9765156,20.896912 60.0440597,21.6215953 60.52,22.72 Z M58.13,24.2 C58.2549193,24.0538709 58.2870515,23.8499118 58.2131107,23.6724539 C58.1391699,23.494996 57.9717213,23.3741955 57.78,23.36 L46.33,23.36 C45.8249307,23.3637945 45.3688788,23.0584381 45.18,22.59 L40.45,11.17 C40.3516225,11.0134059 40.1844666,10.9131124 40,10.9 C39.8251393,10.9257 39.6691153,11.0236685 39.57,11.17 L34.85,22.59 C34.6588792,23.0566124 34.2042353,23.3610261 33.7,23.36 L22.27,23.36 C22.091201,23.3964888 21.9375568,23.5098928 21.85,23.67 C21.7934627,23.8495471 21.8229861,24.0451399 21.93,24.2 L30.73,32.93 C31.0887254,33.2859593 31.1955428,33.8240022 31,34.29 L26.57,44.84 C26.5322984,45.0240773 26.5801093,45.2153208 26.7,45.36 C26.8416004,45.4782146 27.0290886,45.5260057 27.21,45.49 L39.54,40.41 C39.6982054,40.3567854 39.8632104,40.3264783 40.03,40.32 C40.1983104,40.308182 40.3668748,40.3391428 40.52,40.41 L52.84,45.48 C53.0214635,45.5373618 53.2197693,45.4889138 53.3543416,45.3543416 C53.4889138,45.2197693 53.5373618,45.0214635 53.48,44.84 L49.11,34.29 C48.9200527,33.8234521 49.0262355,33.2886051 49.38,32.93 L58.13,24.2 Z" id="Icon" fill="#000066"></path>
    </g>
</svg>