<?xml version="1.0" encoding="UTF-8"?>
<svg width="80px" height="80px" viewBox="0 0 80 80" version="1.1" xmlns="http://www.w3.org/2000/svg" xmlns:xlink="http://www.w3.org/1999/xlink">
    <!-- Generator: Sketch 54.1 (76490) - https://sketchapp.com -->
    <title>Icons thin/Functional/Repeat</title>
    <desc>Created with Sketch.</desc>
    <g id="Icons-thin/Functional/Repeat" stroke="none" stroke-width="1" fill="none" fill-rule="evenodd">
        <path d="M57.061875,19.8514286 C67.9947532,19.9079434 76.8330574,28.7941683 76.8517187,39.7485714 C76.8672487,45.0308757 74.767644,50.0987257 71.023125,53.8171429 C70.7563923,54.0824679 70.3952277,54.2305061 70.019375,54.2285714 C69.440425,54.2296285 68.9183169,53.8798042 68.6981331,53.3433096 C68.4779494,52.8068149 68.603411,52.1901792 69.015625,51.7828571 C72.2186911,48.6022153 74.0143162,44.2669902 74.0001562,39.7485714 C73.9750199,30.347332 66.3649405,22.7376917 56.9820312,22.7314286 L56.83375,22.7314286 L55.5904687,22.6057143 L25.398125,22.6057143 L34.523125,31.7485714 C34.7906031,32.0146279 34.941035,32.3766472 34.941035,32.7542857 C34.941035,33.1319242 34.7906031,33.4939436 34.523125,33.76 C34.259125,34.0308697 33.8972375,34.1835883 33.519375,34.1835883 C33.1415125,34.1835883 32.779625,34.0308697 32.515625,33.76 L22.6720312,23.9657143 C21.9580399,23.2573889 21.5563259,22.2924445 21.5563259,21.2857143 C21.5563259,20.2789841 21.9580399,19.3140397 22.6720312,18.6057143 L32.4471875,8.8 C32.8057928,8.44069289 33.3284715,8.30036749 33.8183355,8.43188302 C34.3081995,8.56339855 34.6908268,8.94677467 34.8220855,9.43759731 C34.9533442,9.92841994 34.8132928,10.4521215 34.4546875,10.8114286 L25.580625,19.7257143 L55.8071875,19.7257143 L57.061875,19.8514286 Z M48.393125,45.7142857 L58.1796875,55.5314286 C59.6497018,57.0189954 59.6497018,59.4152903 58.1796875,60.9028571 L48.3817187,70.6971429 C48.1177187,70.9680126 47.7558313,71.1207312 47.3779687,71.1207312 C47.0001062,71.1207312 46.6382188,70.9680126 46.3742187,70.6971429 C46.1067407,70.4310864 45.9563088,70.0690671 45.9563088,69.6914286 C45.9563088,69.3137901 46.1067407,68.9517707 46.3742187,68.6857143 L55.3965625,59.6457143 L24.0179687,59.6457143 C16.0498041,59.6204403 8.86926556,54.8228165 5.78304144,47.4621824 C2.69681731,40.1015482 4.30334706,31.6051798 9.8628125,25.8857143 C10.2173428,25.5223241 10.73843,25.3760476 11.2297855,25.5019856 C11.7211411,25.6279236 12.1081165,26.0069431 12.2449418,26.4962713 C12.3817671,26.9855994 12.2476553,27.5108956 11.893125,27.8742857 C7.13939034,32.785735 5.77840105,40.0697122 8.43696597,46.3715534 C11.0955309,52.6733946 17.2580716,56.7709768 24.0864062,56.7771429 L24.668125,56.7771429 L55.4079687,56.7771429 L46.385625,47.7257143 C45.8312692,47.1702736 45.8312692,46.2697264 46.385625,45.7142857 C46.9399808,45.1588451 47.8387692,45.1588451 48.393125,45.7142857 Z" id="Icon" fill="#000066"></path>
    </g>
</svg>