<?xml version="1.0" encoding="UTF-8"?>
<svg width="80px" height="80px" viewBox="0 0 80 80" version="1.1" xmlns="http://www.w3.org/2000/svg" xmlns:xlink="http://www.w3.org/1999/xlink">
    <!-- Generator: Sketch 55.2 (78181) - https://sketchapp.com -->
    <title>Icons thin/Users/DirectoryEnquires</title>
    <desc>Created with Sketch.</desc>
    <g id="Icons-thin/Users/DirectoryEnquires" stroke="none" stroke-width="1" fill="none" fill-rule="evenodd">
        <path d="M40.1161213,3.53819607 L40.1576721,3.53819607 C32.2691683,3.5335439 25.232951,8.45665104 22.5925313,15.8281902 C19.9521117,23.1997295 22.2800181,31.4213127 28.4038929,36.3524664 C34.5277677,41.2836201 43.119757,41.8551107 49.8528469,37.7791296 C50.6616588,37.3542487 51.6642262,37.6270889 52.1410566,38.4018466 C52.617887,39.1766044 52.4042137,40.1855653 51.6533793,40.7046486 C43.3612544,45.7529537 32.7183805,44.8467633 25.4154114,38.4706098 C18.1124423,32.0944562 15.8579308,21.7400609 19.8573449,12.9438304 C23.856759,4.14759989 33.174423,-1.03255968 42.8282617,0.173138702 C52.4821005,1.37883709 60.2135676,8.68831646 61.8887139,18.1932607 C61.9579651,18.5366315 62.0687671,18.9349416 62.0687671,19.3195168 C62.1835063,20.2639163 61.5045003,21.1217426 60.5521648,21.2355257 C59.5998292,21.3493088 58.7347942,20.6759612 58.6200549,19.7315618 C58.5923544,19.4293955 58.5508037,19.1272292 58.4954027,18.8250629 C56.9431448,9.96933258 49.180137,3.51249329 40.1161213,3.53819607 Z M3.73151536,80 C3.27235104,80 2.83199289,79.8191177 2.50731468,79.4971451 C2.18263647,79.1751726 2,78.7384841 2,78.2831461 C1.9585893,66.521988 7.47404165,55.420346 16.9031028,48.2862753 C17.668031,47.7097745 18.7594013,47.8573575 19.3407467,48.6159113 C19.9220921,49.374465 19.7732689,50.4567406 19.0083408,51.0332415 C10.9288783,57.1578629 5.98720358,66.5064978 5.50434733,76.5800271 L74.7555958,76.5800271 C74.2804377,66.5050173 69.33075,57.1558467 61.2377521,51.0469763 C60.5156994,50.4539333 60.3951922,49.401099 60.9648439,48.6626616 C61.5344956,47.9242242 62.5907219,47.7640894 63.3568403,48.3000102 C72.7715902,55.4368407 78.2758981,66.5316001 78.232269,78.2831461 C78.232269,79.2313383 77.4568875,80 76.5007273,80 L3.73151536,80 Z M54.1464243,30.8155703 C54.0545324,31.0038202 53.9381192,31.1792937 53.800168,31.3374939 C53.212733,31.9303428 52.408407,32.262273 51.5702778,32.2577276 C50.7228739,32.2681576 49.9077336,31.9358921 49.3126871,31.3374939 C48.6827818,30.709326 48.3506436,29.8459761 48.3985707,28.9613682 C48.4001912,28.8257949 48.4235676,28.691342 48.4678219,28.5630581 C48.4468836,28.4357071 48.4468836,28.3058338 48.4678219,28.1784828 C48.612739,27.6600618 48.8893233,27.1871661 49.2711364,26.8049997 C49.8575093,26.2206079 50.6558578,25.8940334 51.4871763,25.8985009 C52.3339695,25.8912252 53.1479178,26.2230049 53.744767,26.8187345 C53.8948444,26.9784925 54.0336739,27.1482887 54.1602745,27.3269233 L62.0549169,27.3269233 C65.7517671,27.3269311 68.7507996,24.3590352 68.7584377,20.6929999 L68.7584377,16.5725506 C68.7584377,15.6243584 69.5335587,14.8556968 70.4897189,14.8556968 C71.4458791,14.8556968 72.2210852,15.6243584 72.2210852,16.5725506 L72.2210852,20.6929999 C72.2320496,23.3738765 71.165863,25.9487096 69.2581537,27.8482536 C67.3504443,29.7477975 64.7583444,30.8155927 62.0549169,30.8155703 L54.1464243,30.8155703 Z" id="Icon" fill="#000066"></path>
    </g>
</svg>