<?xml version="1.0" encoding="UTF-8"?>
<svg width="80px" height="80px" viewBox="0 0 80 80" version="1.1" xmlns="http://www.w3.org/2000/svg" xmlns:xlink="http://www.w3.org/1999/xlink">
    <!-- Generator: Sketch 55.2 (78181) - https://sketchapp.com -->
    <title>Icons thin/Users/MyCards</title>
    <desc>Created with Sketch.</desc>
    <g id="Icons-thin/Users/MyCards" stroke="none" stroke-width="1" fill="none" fill-rule="evenodd">
        <path d="M29.5506493,45.2118205 C19.1002824,45.1487482 10.6499366,36.6255522 10.608322,26.106153 C10.608322,18.3751596 15.2369081,11.4061392 22.334093,8.45121291 C29.4312778,5.4962866 37.5980855,7.13792706 43.0234428,12.6100563 C48.4488001,18.0821854 50.0632649,26.3061416 47.1134408,33.444183 C44.1636166,40.5822243 37.2309705,45.2273058 29.5506493,45.2118205 Z M29.5506493,10.210367 C20.8378693,10.231463 13.779977,17.3359066 13.7590192,26.106153 C13.7538861,32.5428931 17.6026028,38.3484667 23.5094278,40.8140903 C29.4162528,43.2797139 36.2170562,41.9194572 40.7386972,37.3679931 C45.2603382,32.8165291 46.6116819,25.97087 44.1622141,20.0250857 C41.7127463,14.0793015 35.9452132,10.2052 29.5506493,10.210367 Z M1.0658141e-14,71.7729537 C-0.0246341952,62.6738604 4.10707602,54.0682995 11.2054309,48.4344179 C11.659317,48.0803361 12.2663877,47.9968934 12.7979654,48.215522 C13.329543,48.4341505 13.7048683,48.9216355 13.7825599,49.4943459 C13.8602514,50.0670563 13.628506,50.6379838 13.1746199,50.9920657 C7.29027458,55.6634875 3.67030888,62.6440271 3.22703952,70.1744239 L34.5434962,70.1744239 C35.4205551,70.1744239 36.1315518,70.89011 36.1315518,71.7729537 C36.1315518,72.6557974 35.4205551,73.3714836 34.5434962,73.3714836 L1.58816613,73.3714836 C0.711107232,73.3714836 1.0658141e-14,72.6557974 1.0658141e-14,71.7729537 Z M80,68.7932941 C80,71.4156508 77.8918155,73.5434695 75.2866509,73.5505189 L55.5185347,73.5505189 C54.9922994,73.5505189 54.5657013,73.1211072 54.5657013,72.591401 C54.5657013,72.0616948 54.9922994,71.6322831 55.5185347,71.6322831 L75.2866509,71.6322831 C76.8393439,71.6252428 78.094349,70.3562438 78.0943333,68.7932941 L78.0943333,57.1048438 L44.9103232,57.1048438 L44.9103232,69.2153059 C45.0653612,70.6243018 46.2461667,71.691835 47.6544833,71.6962243 L48.2134789,71.6962243 C48.7397142,71.6962243 49.1663122,72.125636 49.1663122,72.6553422 C49.1663122,73.1850484 48.7397142,73.6144601 48.2134789,73.6144601 L47.6544833,73.6144601 C45.1673044,73.6531756 43.0903573,71.7146792 42.9411343,69.2153059 L42.9411343,53.2427957 C42.8756526,51.9309337 43.3391484,50.6480299 44.2265253,49.684979 C45.1139022,48.721928 46.3499806,48.1603208 47.6544833,48.1275002 L75.2866509,48.1275002 C77.8918155,48.1345495 80,50.2623683 80,52.884725 L80,68.7932941 Z M44.9103232,55.186608 L78.0943333,55.186608 L78.0943333,52.884725 C78.0943333,51.3217752 76.8393439,50.0527763 75.2866509,50.045736 L47.7180055,50.045736 C46.9074704,50.0803584 46.1469496,50.4497376 45.6156277,51.066845 C45.0843057,51.6839523 44.8291666,52.4942179 44.9103232,53.3067369 L44.9103232,55.186608 Z" id="Icon" fill="#000066"></path>
    </g>
</svg>