<?xml version="1.0" encoding="UTF-8"?>
<svg width="80px" height="80px" viewBox="0 0 80 80" version="1.1" xmlns="http://www.w3.org/2000/svg" xmlns:xlink="http://www.w3.org/1999/xlink">
    <!-- Generator: Sketch 55.2 (78181) - https://sketchapp.com -->
    <title>Icons thin/Users/MyO2</title>
    <desc>Created with Sketch.</desc>
    <g id="Icons-thin/Users/MyO2" stroke="none" stroke-width="1" fill="none" fill-rule="evenodd">
        <path d="M40.1912671,43.7530747 C28.0343775,43.7530747 18.1792713,33.9586153 18.1792713,21.8765373 C18.1792713,9.79445939 28.0343775,-7.10542736e-15 40.1912671,-7.10542736e-15 C52.3481566,-7.10542736e-15 62.2032628,9.79445939 62.2032628,21.8765373 C62.2032628,33.9586153 52.3481566,43.7530747 40.1912671,43.7530747 Z M40.1912671,3.54124414 C35.2740651,3.53400709 30.5555582,5.46931553 27.0746992,8.92106057 C23.5938401,12.3728056 21.6360482,17.0579552 21.6324031,21.9449015 C21.6324031,32.1036045 29.9146654,40.3409573 40.1362677,40.348493 C50.3578701,40.3560183 58.6523859,32.130878 58.6675865,21.9721863 C58.6827453,11.8134945 50.4128468,3.56390646 40.1912671,3.54124414 Z M63.92295,48.5522401 C73.0952775,55.7457237 78.4276663,66.7331374 78.3823697,78.3453493 C78.3523622,79.2678369 77.5910676,80 76.6623926,80 L3.74765655,80 C2.8083271,80.0151754 2.03038901,79.2785514 2,78.3453493 C1.94329154,66.7120995 7.28224673,55.7014375 16.4733416,48.4975487 C16.9648496,48.1189741 17.6222395,48.0297595 18.1978789,48.2635112 C18.7735182,48.4972629 19.1799537,49.0184684 19.2640849,49.6307948 C19.3482162,50.2431211 19.0972618,50.8535413 18.6057537,51.2321159 C10.7324779,57.409068 5.94394062,66.6777797 5.48110122,76.6362449 L74.9014329,76.6362449 C74.4283074,66.6957617 69.6402347,57.4479016 61.7767804,51.2868072 C61.2852723,50.9057902 61.035629,50.2931132 61.1218885,49.6795656 C61.2081481,49.0660181 61.6172057,48.5448125 62.1949734,48.312282 C62.772741,48.0797515 63.431442,48.171223 63.92295,48.5522401 Z" id="Icon" fill="#000066"></path>
    </g>
</svg>